# xmcd
#
# Track frame offsets: 
#        150
#        19772
#        32161
#        35118
#        46394
#        58221
#        69035
#        74484
#        88033
#        91804
#        102028
#        111037
#        124770
#        143558
#        164415
#        168998
#        174073
#        180771
#        184835
#        190421
#        207512
#        226828
#        243931
#        250686
#        264238
#
# Disc length: 3595 seconds
#
# Revision: 0
# Processed by: cddbd v1.5.2PL0 Copyright (c) Steve Scherf et al.
# Submitted via: ExactAudioCopy v1.0b6
#
DISCID=490e0919
DTITLE=James Levine: Metropolitan Opera Orchestra - MOZART: Le Nozze D
DTITLE=i Figaro (1991)
DYEAR=1991
DGENRE=Opera
TTITLE0=MOZART: Le Nozze Di Figaro - Sinfonia
TTITLE1=MOZART: Le Nozze Di Figaro - Act 1: Duettino: "Cinque...dieci.
TTITLE1=venti...trenta..."
TTITLE2=MOZART: Le Nozze Di Figaro - Act 1: Recitativo: "Cosa stai mis
TTITLE2=urando"
TTITLE3=MOZART: Le Nozze Di Figaro - Act 1: Duettino: "Se a caso Madam
TTITLE3=a la notte ti chiama"
TTITLE4=MOZART: Le Nozze Di Figaro - Act 1: Recitativo: "Or bene, asco
TTITLE4=lta, e taci"
TTITLE5=MOZART: Le Nozze Di Figaro - Act 1: Cavatina: "Se vuol ballare
TTITLE5=, Signor Contino"
TTITLE6=MOZART: Le Nozze Di Figaro - Act 1: Recitativo: "Ed aspettaste
TTITLE6=il giorno"
TTITLE7=MOZART: Le Nozze Di Figaro - Act 1: Aria: "La vendetta, oh, la
TTITLE7=vendetta"
TTITLE8=MOZART: Le Nozze Di Figaro - Act 1: Recitativo: "Tutto ancor n
TTITLE8=on ho perso"
TTITLE9=MOZART: Le Nozze Di Figaro - Act 1: Duettino: "Via, resti serv
TTITLE9=ita, Madama brillante"
TTITLE10=MOZART: Le Nozze Di Figaro - Act 1: Recitativo: "Va la, vecch
TTITLE10=ia pedante"
TTITLE11=MOZART: Le Nozze Di Figaro - Act 1: Aria: "Non so piu cosa so
TTITLE11=n, cosa faccio..."
TTITLE12=MOZART: Le Nozze Di Figaro - Act 1: Recitativo: "Ah, son perd
TTITLE12=uto!"
TTITLE13=MOZART: Le Nozze Di Figaro - Act 1: Terzetto: "Cosa sento! to
TTITLE13=sto andate"
TTITLE14=MOZART: Le Nozze Di Figaro - Act 1: Recitativo: "Basilio, in 
TTITLE14=traccia tosto di Figaro"
TTITLE15=MOZART: Le Nozze Di Figaro - Act 1: Coro: "Giovani liete, fio
TTITLE15=ri spargete"
TTITLE16=MOZART: Le Nozze Di Figaro - Act 1: Recitativo: "Cos'e questa
TTITLE16=commedia?"
TTITLE17=MOZART: Le Nozze Di Figaro - Act 1: Coro: "Giovani liete, fio
TTITLE17=ri spargete"
TTITLE18=MOZART: Le Nozze Di Figaro - Act 1: Recitativo: "Evviva!"..."
TTITLE18=E voi non applaudite?"
TTITLE19=MOZART: Le Nozze Di Figaro - Act 1: Aria: "Non piu andrai, fa
TTITLE19=rfallone amoroso"
TTITLE20=MOZART: Le Nozze Di Figaro - Act 2: Cavatina: "Porgi, amor, q
TTITLE20=ualche ristoro"
TTITLE21=MOZART: Le Nozze Di Figaro - Act 2: Recitativo: "Vieni, cara 
TTITLE21=Susanna"
TTITLE22=MOZART: Le Nozze Di Figaro - Act 2: Recitativo: "Quanto duolm
TTITLE22=i, Susanna"
TTITLE23=MOZART: Le Nozze Di Figaro - Act 2: Arietta: "Voi che sapete 
TTITLE23=che cosa a amor"
TTITLE24=MOZART: Le Nozze Di Figaro - Act 2: Recitativo: Bravo! che be
TTITLE24=lla voce!"
EXTD=
EXTT0=
EXTT1=
EXTT2=
EXTT3=
EXTT4=
EXTT5=
EXTT6=
EXTT7=
EXTT8=
EXTT9=
EXTT10=
EXTT11=
EXTT12=
EXTT13=
EXTT14=
EXTT15=
EXTT16=
EXTT17=
EXTT18=
EXTT19=
EXTT20=
EXTT21=
EXTT22=
EXTT23=
EXTT24=
PLAYORDER=
